<svg width="13" height="22" viewBox="0 0 13 22" fill="none" xmlns="http://www.w3.org/2000/svg">
<path d="M7.62123 12.6316C8.5699 12.4228 9.39603 11.9507 10.0951 11.2109C11.0029 10.2531 11.4613 9.10016 11.4613 7.78835C11.4613 6.93045 11.2435 6.10433 10.8122 5.33268C10.3719 4.53833 9.75008 3.91193 8.95573 3.47163C8.17954 3.03588 7.35342 2.81346 6.49552 2.81346C5.63309 2.81346 4.80242 3.03134 4.03077 3.46256C3.2455 3.90285 2.6191 4.52471 2.17427 5.31906L2.16973 5.3236C1.73851 6.10433 1.52063 6.93045 1.52063 7.78835C1.52063 8.66894 1.74759 9.51322 2.19696 10.303L2.2015 10.3121C2.66449 11.1019 3.29089 11.7147 4.06708 12.1323L4.07616 12.1368C4.51192 12.3683 4.93406 12.5317 5.34712 12.6316V14.0478H1.77936V16.3219H5.34712V19.7263H7.62122V16.3219H11.1799V14.0478H7.62122L7.62123 12.6316ZM6.48644 5.06487C6.95397 5.06487 7.39427 5.18289 7.84364 5.428L7.85272 5.43254C8.28394 5.6595 8.61076 5.98178 8.85133 6.41299C9.10098 6.86237 9.22354 7.31628 9.22354 7.79289C9.22354 8.56 8.96027 9.19094 8.42011 9.73564C7.8845 10.2713 7.25356 10.5345 6.48644 10.5345C5.72841 10.5345 5.09293 10.2758 4.55277 9.73564C4.01716 9.19548 3.75389 8.56 3.75389 7.79289C3.75389 7.31628 3.87644 6.86237 4.12609 6.41299C4.36667 5.98178 4.69349 5.6595 5.12016 5.428C5.57862 5.18289 6.02345 5.06487 6.48644 5.06487Z" fill="#F772E1"/>
</svg>
