<svg width="16" height="17" viewBox="0 0 16 17" fill="none" xmlns="http://www.w3.org/2000/svg">
<path d="M13.6521 3.70952C13.3183 3.37555 12.9219 3.11062 12.4857 2.92987C12.0495 2.74912 11.5819 2.65609 11.1097 2.65609C10.6375 2.65609 10.17 2.74912 9.73372 2.92987C9.2975 3.11062 8.90116 3.37555 8.56735 3.70952L7.87457 4.40229L7.18179 3.70952C6.50751 3.03524 5.593 2.65644 4.63943 2.65644C3.68586 2.65644 2.77134 3.03524 2.09707 3.70952C1.42279 4.38379 1.04399 5.29831 1.04399 6.25188C1.04399 7.20545 1.42279 8.11996 2.09707 8.79424L2.78984 9.48702L7.87457 14.5717L12.9593 9.48702L13.6521 8.79424C13.986 8.46043 14.251 8.06409 14.4317 7.62786C14.6125 7.19164 14.7055 6.72407 14.7055 6.25188C14.7055 5.77969 14.6125 5.31212 14.4317 4.8759C14.251 4.43967 13.986 4.04333 13.6521 3.70952Z" fill="#FF4646"/>
</svg>
