<svg width="24" height="24" viewBox="0 0 24 24" fill="none" xmlns="http://www.w3.org/2000/svg">
<path d="M17.4291 8.01898C17.4291 6.52136 16.8341 5.08508 15.7752 4.0261C14.7162 2.96712 13.2799 2.37219 11.7823 2.37219C10.2847 2.37219 8.84838 2.96712 7.7894 4.0261C6.73043 5.08508 6.1355 6.52136 6.1355 8.01898C6.1355 14.6069 3.3121 16.4892 3.3121 16.4892H20.2525C20.2525 16.4892 17.4291 14.6069 17.4291 8.01898Z" stroke="#5F5B5B" stroke-width="1.88226" stroke-linecap="round" stroke-linejoin="round"/>
<path d="M13.4105 20.2537C13.245 20.5389 13.0075 20.7757 12.7218 20.9402C12.436 21.1048 12.1121 21.1915 11.7823 21.1915C11.4526 21.1915 11.1286 21.1048 10.8429 20.9402C10.5571 20.7757 10.3196 20.5389 10.1542 20.2537" stroke="#5F5B5B" stroke-width="1.88226" stroke-linecap="round" stroke-linejoin="round"/>
</svg>
