<svg width="16" height="16" viewBox="0 0 16 16" fill="none" xmlns="http://www.w3.org/2000/svg">
<path d="M12.4694 1.54903H10.136C9.29648 2.38855 8.82579 2.85923 7.98628 3.69875V3.69876H10.9493L8.77435 5.87368C8.05533 5.42722 7.20697 5.16937 6.29835 5.16937C3.7024 5.16937 1.59795 7.27381 1.59795 9.86977C1.59795 12.4657 3.7024 14.5702 6.29835 14.5702C8.89431 14.5702 10.9988 12.4657 10.9988 9.86977C10.9988 8.96116 10.7409 8.11279 10.2944 7.39377L12.4694 5.21884V8.18185C13.3089 7.34233 13.7796 6.87164 14.6191 6.03212V3.69876V1.54903H12.4694ZM6.29835 12.5102C4.84008 12.5102 3.65792 11.328 3.65792 9.86977C3.65792 8.4115 4.84008 7.22933 6.29835 7.22933C7.75663 7.22933 8.93879 8.41149 8.93879 9.86977C8.93879 11.328 7.75663 12.5102 6.29835 12.5102Z" fill="#8EB1E6"/>
</svg>
