<svg width="18" height="18" viewBox="0 0 18 18" fill="none" xmlns="http://www.w3.org/2000/svg">
<g clip-path="url(#clip0_1_552)">
<path d="M16.4233 12.6002V14.7962C16.4242 15 16.3824 15.2018 16.3007 15.3886C16.2191 15.5754 16.0993 15.7431 15.9491 15.8809C15.7989 16.0187 15.6215 16.1236 15.4284 16.189C15.2353 16.2543 15.0306 16.2785 14.8276 16.2602C12.5751 16.0154 10.4115 15.2457 8.51052 14.013C6.7419 12.8891 5.24242 11.3896 4.11857 9.62101C2.88149 7.71139 2.11163 5.53723 1.87136 3.27464C1.85307 3.07223 1.87712 2.86821 1.942 2.6756C2.00687 2.48299 2.11114 2.30599 2.24816 2.15588C2.38519 2.00578 2.55197 1.88584 2.73788 1.80372C2.9238 1.7216 3.12478 1.6791 3.32802 1.6789H5.524C5.87924 1.67541 6.22363 1.8012 6.49298 2.03285C6.76233 2.26449 6.93826 2.58617 6.98798 2.93793C7.08066 3.64069 7.25256 4.33071 7.50037 4.99482C7.59886 5.25682 7.62017 5.54156 7.56179 5.8153C7.50341 6.08904 7.36778 6.34031 7.17098 6.53933L6.24135 7.46895C7.28338 9.30153 8.80072 10.8189 10.6333 11.8609L11.5629 10.9313C11.7619 10.7345 12.0132 10.5988 12.2869 10.5405C12.5607 10.4821 12.8454 10.5034 13.1074 10.6019C13.7715 10.8497 14.4616 11.0216 15.1643 11.1143C15.5199 11.1644 15.8446 11.3435 16.0768 11.6175C16.3089 11.8915 16.4323 12.2412 16.4233 12.6002Z" stroke="white" stroke-width="1.88226" stroke-linecap="round" stroke-linejoin="round"/>
</g>
<defs>
<clipPath id="clip0_1_552">
<rect width="17.5678" height="17.5678" fill="white" transform="translate(0.319458 0.214935)"/>
</clipPath>
</defs>
</svg>
